<svg width="42" height="41" viewBox="0 0 42 41" fill="none" xmlns="http://www.w3.org/2000/svg"><mask id="mask0" mask-type="alpha" maskUnits="userSpaceOnUse" x="0" y="0" width="42" height="41"><path fill-rule="evenodd" clip-rule="evenodd" d="M0 0.136719H41.3108V40.1112H0V0.136719Z" fill="white"></path></mask><g mask="url(#mask0)"><path fill-rule="evenodd" clip-rule="evenodd" d="M13.7003 37.2848C9.68713 36.2559 5.8739 34.101 3.64586 30.5039C1.38421 26.8525 1.04811 22.2976 2.08109 18.1903C3.00727 14.5116 4.90389 11.5593 7.38805 9.18777C14.9707 6.44267 23.3778 4.43245 30.8618 8.19926C38.8737 12.2316 41.928 22.5256 37.2349 30.1963C32.4474 38.021 21.9816 39.4078 13.7003 37.2848ZM36.2487 9.85884C29.2778 2.89884 19.5313 3.74139 10.7592 6.52309C14.7507 3.90309 19.5569 2.27075 24.2095 1.27203C24.8328 1.13841 24.7073 0.0647962 24.0568 0.140541C17.6798 0.884796 11.0953 3.54309 6.42221 8.06735C5.17269 8.55756 3.95677 9.0682 2.79191 9.58139C2.13631 9.87033 2.60897 11.0167 3.28457 10.7503C3.65045 10.6065 4.02016 10.4618 4.39157 10.3171C3.18885 11.8418 2.18268 13.5303 1.43603 15.3856C-2.13683 24.2703 1.03612 34.1456 10.0751 37.9818C18.3737 41.5039 30.304 40.9669 36.6979 34.0269C42.9864 27.201 42.8541 16.4546 36.2487 9.85884Z" fill="#FFD200"></path><path d="M21.5252 30.5161L21.6164 30.5041C21.8929 30.4426 22.0312 30.2583 22.0312 29.9511C21.8468 26.9713 21.7777 23.9838 21.8238 20.9886C21.8699 17.9934 22.2001 14.9905 22.8145 11.9799C22.8145 11.7956 22.7608 11.5959 22.6532 11.3809C22.5457 11.1658 22.3998 10.9662 22.2155 10.7818C22.0312 10.5975 21.8161 10.4439 21.5704 10.321C21.3246 10.1982 21.0942 10.1367 20.8792 10.1367C20.6948 10.1367 20.5105 10.3978 20.3262 10.9201C20.1419 11.4423 19.9729 12.026 19.8193 12.6711C18.9899 17.402 18.7902 22.2404 19.2203 27.1863C19.2203 27.4014 19.3432 27.8391 19.5889 28.4996C19.8347 29.1601 20.234 29.7207 20.787 30.1815C20.9099 30.2737 21.0404 30.3582 21.1787 30.435C21.3169 30.5118 21.4628 30.5348 21.6164 30.5041L21.5252 30.5161Z" fill="#161408"></path></g></svg>