<svg width="43" height="40" viewBox="0 0 43 40" fill="none" xmlns="http://www.w3.org/2000/svg"><path fill-rule="evenodd" clip-rule="evenodd" d="M22.7542 32.5541C22.4931 32.7691 22.209 32.8613 21.9019 32.8305C21.4719 32.7998 21.1187 32.5541 20.8423 32.0933C20.5659 31.6325 20.3969 31.1409 20.3355 30.6187C20.1819 29.6664 20.0744 28.7294 20.013 27.8078C19.9516 26.8862 19.9055 25.9493 19.8748 24.9969C18.9841 25.2427 18.0781 25.4808 17.1567 25.7112C16.2353 25.9416 15.3292 26.1643 14.4385 26.3793C13.7628 26.5329 13.1869 26.5022 12.7109 26.2872C12.2348 26.0721 11.8586 25.7573 11.5822 25.3425C11.3057 24.9278 11.1291 24.467 11.0524 23.9601C10.9756 23.4533 10.9832 22.9848 11.0754 22.5547C11.9661 20.3736 13.0334 18.2539 14.2773 16.1957C15.5212 14.1374 16.9724 12.0638 18.6309 9.97486C18.9073 9.7291 19.3296 9.52174 19.8978 9.35278C20.466 9.18382 20.9498 9.20686 21.3491 9.4219C21.4105 9.48334 21.4565 9.52174 21.4873 9.5371C21.518 9.55246 21.5487 9.59086 21.5794 9.6523C21.6101 9.56014 21.6562 9.39118 21.7176 9.14542C21.8712 8.77678 22.0862 8.47726 22.3626 8.24686C22.639 8.01646 22.9462 7.94734 23.284 8.0395C23.8061 8.1931 24.167 8.43118 24.3667 8.75374C24.5663 9.0763 24.6508 9.46798 24.62 9.92878C24.2515 11.6798 23.9367 13.4693 23.6756 15.2971C23.4145 17.1249 23.2072 19.0833 23.0536 21.1723C23.9751 20.9573 24.9272 20.7653 25.91 20.5963C26.8928 20.4273 27.9217 20.2661 28.9967 20.1125C29.181 20.0817 29.3883 20.0817 29.6187 20.1125C29.849 20.1432 30.0794 20.1893 30.3097 20.2507C30.5401 20.3121 30.7243 20.4043 30.8626 20.5272C31.0008 20.6501 31.0699 20.8037 31.0699 20.988C31.0699 21.4181 30.8242 21.8174 30.3327 22.1861C29.8413 22.5547 29.3038 22.8005 28.7203 22.9233C27.7375 23.1077 26.77 23.3073 25.8179 23.5224C24.8657 23.7374 23.9136 23.9678 22.9615 24.2136C22.9308 25.3809 22.9231 26.579 22.9385 27.8078C22.9538 29.0366 23.0076 30.3269 23.0997 31.6785C23.1304 32.0472 23.0153 32.339 22.7542 32.5541ZM16.8153 17.4641C15.6328 19.4456 14.6423 21.5115 13.8438 23.6619C14.7959 23.3854 15.771 23.1012 16.7692 22.8094C17.7674 22.5176 18.804 22.2334 19.879 21.9569C20.0018 18.3934 20.4625 14.7684 21.2611 11.082C21.1996 11.2049 21.1228 11.3201 21.0307 11.4276C20.9386 11.5352 20.8618 11.635 20.8004 11.7272C19.3261 13.5704 17.9977 15.4827 16.8153 17.4641Z" fill="#161408"></path><path fill-rule="evenodd" clip-rule="evenodd" d="M24.3224 36.9126C20.3964 38.2359 16.025 38.5059 12.1977 36.7029C8.31262 34.8726 5.5505 31.2356 4.18034 27.2283C2.95395 23.6385 2.93697 20.1293 3.72902 16.7871L4.2641 16.0863C9.02991 9.90558 14.8526 4.05508 22.8775 3.17066C31.7926 2.18793 39.9594 9.15743 40.2003 18.1471C40.4459 27.3175 32.4237 34.1819 24.3224 36.9126ZM28.2984 1.62288C18.6623 -0.416857 10.947 5.59919 5.10474 12.7108C7.02564 8.3391 10.1676 4.3519 13.5258 0.979759C13.9758 0.528168 13.2859 -0.303874 12.7816 0.114014C7.83871 4.21207 3.76394 10.0285 2.30835 16.3685C1.52734 17.4603 0.785649 18.5509 0.0881606 19.6159C-0.304344 20.2154 0.716299 20.9193 1.13785 20.3279L1.83038 19.3615C1.65192 21.2954 1.7275 23.2596 2.11158 25.2224C3.95304 34.62 11.9914 41.1737 21.661 39.467C30.5387 37.9002 40.2519 30.9507 41.8353 21.6472C43.3923 12.4968 37.4297 3.55621 28.2984 1.62288Z" fill="#FFDD00"></path></svg>