<svg data-v-e24b3c4c="" height="16" viewBox="0 0 14 22" fill="none" xmlns="http://www.w3.org/2000/svg"><path data-v-e24b3c4c="" d="M6.28418 15.1758C7.32422 15.1758 7.89551 14.6045 8.11523 13.623C8.30566 12.3926 8.74512 11.7627 10.6934 10.6348C12.7588 9.41895 13.8281 7.91016 13.8281 5.69824C13.8281 2.28516 11.0303 0 6.87012 0C3.7207 0 1.37695 1.24512 0.439453 3.17871C0.146484 3.73535 0 4.29199 0 4.92188C0 6.03516 0.717773 6.75293 1.875 6.75293C2.76855 6.75293 3.42773 6.34277 3.79395 5.40527C4.2627 4.10156 5.22949 3.39844 6.66504 3.39844C8.27637 3.39844 9.38965 4.39453 9.38965 5.83008C9.38965 7.17773 8.81836 7.91016 6.92871 9.03809C5.2002 10.0488 4.30664 11.1914 4.30664 12.9199V13.125C4.30664 14.3262 5.03906 15.1758 6.28418 15.1758ZM6.31348 21.6943C7.64648 21.6943 8.71582 20.6836 8.71582 19.3945C8.71582 18.1055 7.64648 17.0947 6.31348 17.0947C4.99512 17.0947 3.92578 18.1055 3.92578 19.3945C3.92578 20.6836 4.99512 21.6943 6.31348 21.6943Z" fill="#fff"></path></svg>