<svg width="47" height="52" viewBox="0 0 47 52" fill="none" xmlns="http://www.w3.org/2000/svg"> <path fill-rule="evenodd" clip-rule="evenodd" d="M28.7588 39.8332C32.8576 39.2295 36.8751 37.4851 39.4669 34.1407C42.0977 30.7457 42.908 26.2509 42.3099 22.0581C41.7732 18.3027 40.1956 15.1683 37.9728 12.5501C30.7186 9.02722 22.5676 6.14904 14.731 9.11276C6.34156 12.2854 2.22825 22.2037 6.09396 30.323C10.0375 38.6053 20.3011 41.0787 28.7588 39.8332ZM9.19171 10.1994C16.8517 4.00629 26.4568 5.86323 34.8902 9.54683C31.1944 6.52387 26.5851 4.39797 22.0623 2.91829C21.4564 2.72024 21.6934 1.66562 22.3324 1.80896C28.5967 3.21586 34.8673 6.54801 39.042 11.5361C40.2334 12.1542 41.3893 12.7892 42.4942 13.4214C43.116 13.7772 42.5261 14.8679 41.882 14.5324C41.5332 14.3511 41.1806 14.1685 40.8264 13.9858C41.8632 15.6279 42.6874 17.4124 43.236 19.3356C45.8608 28.5451 41.6732 38.0346 32.2829 40.9047C23.6616 43.5399 11.8528 41.7586 6.21918 34.1881C0.678534 26.742 1.93318 16.0684 9.19171 10.1994Z" fill="#FFD200"></path> <path d="M23.2629 23.2503C25.0829 23.4903 26.5329 23.9403 27.6129 24.6003C28.6929 25.2603 29.2329 26.1403 29.2329 27.2403C29.2329 28.3203 28.5929 29.3903 27.3129 30.4503C26.0529 31.5103 24.5129 32.3403 22.6929 32.9403C20.8929 33.5403 19.0629 33.8403 17.2029 33.8403C15.3629 33.8403 14.4429 33.5003 14.4429 32.8203C14.4429 32.6403 15.0329 32.4103 16.2129 32.1303C17.4129 31.8303 18.7229 31.5203 20.1429 31.2003C21.5629 30.8603 22.8629 30.3303 24.0429 29.6103C25.2429 28.8703 25.8429 28.0203 25.8429 27.0603C25.8429 26.5403 25.4829 26.1203 24.7629 25.8003C24.0429 25.4603 23.2429 25.2203 22.3629 25.0803C20.0429 24.7403 18.8829 24.3403 18.8829 23.8803C18.8829 23.7203 18.9129 23.6003 18.9729 23.5203C19.1329 23.2403 19.6429 22.8503 20.5029 22.3503C21.3629 21.8503 22.2329 21.3603 23.1129 20.8803C24.0129 20.4003 24.8329 19.7703 25.5729 18.9903C26.3129 18.2103 26.6829 17.4203 26.6829 16.6203C26.6829 15.6803 26.1729 15.2103 25.1529 15.2103C24.3329 15.2103 23.2929 15.5403 22.0329 16.2003C20.7729 16.8403 20.0529 17.1603 19.8729 17.1603C19.7129 17.1603 19.4029 16.9503 18.9429 16.5303C18.4829 16.0903 18.2529 15.7603 18.2529 15.5403C18.2529 14.9403 19.0629 14.3203 20.6829 13.6803C22.3229 13.0403 23.7729 12.7203 25.0329 12.7203C26.2929 12.7203 27.3529 13.1503 28.2129 14.0103C29.0929 14.8703 29.5329 15.8603 29.5329 16.9803C29.5329 18.0803 28.9029 19.2103 27.6429 20.3703C26.3829 21.5103 24.9229 22.4703 23.2629 23.2503Z" fill="#161408"></path> </svg>