<svg width="47" height="45" viewBox="0 0 47 45" fill="none" xmlns="http://www.w3.org/2000/svg"><path fill-rule="evenodd" clip-rule="evenodd" d="M28.7588 39.9465C32.8576 39.3428 36.8751 37.5984 39.4669 34.254C42.0977 30.859 42.908 26.3641 42.3099 22.1714C41.7732 18.416 40.1956 15.2816 37.9728 12.6633C30.7186 9.1405 22.5676 6.26232 14.731 9.22605C6.34156 12.3986 2.22825 22.317 6.09396 30.4363C10.0375 38.7186 20.3011 41.192 28.7588 39.9465ZM9.19171 10.3126C16.8517 4.11957 26.4568 5.97651 34.8902 9.66011C31.1944 6.63715 26.5851 4.51126 22.0623 3.03157C21.4564 2.83352 21.6934 1.7789 22.3324 1.92224C28.5967 3.32914 34.8673 6.66129 39.042 11.6493C40.2334 12.2675 41.3893 12.9025 42.4942 13.5346C43.116 13.8905 42.5261 14.9812 41.882 14.6457C41.5332 14.4644 41.1806 14.2818 40.8264 14.0991C41.8632 15.7412 42.6874 17.5256 43.236 19.4489C45.8608 28.6584 41.6732 38.1479 32.2829 41.018C23.6616 43.6532 11.8528 41.8718 6.21918 34.3014C0.678534 26.8553 1.93318 16.1816 9.19171 10.3126Z" fill="#FFD200"></path><path d="M17.5675 30.1752L17.6944 30.1637C18.6158 30.0715 19.6524 29.941 20.8042 29.772C21.9559 29.603 23.1307 29.4264 24.3286 29.2421C25.5264 29.0578 26.7165 28.8734 27.899 28.6891C29.0815 28.5048 30.1641 28.3358 31.1469 28.1822C31.2698 28.1822 31.431 28.0824 31.6307 27.8827C31.8303 27.683 32.0069 27.4603 32.1605 27.2146C32.3141 26.9688 32.4139 26.7307 32.4599 26.5003C32.506 26.2699 32.4369 26.1086 32.2526 26.0165C32.0991 25.955 31.7996 25.8782 31.3543 25.7861C30.9089 25.6939 30.5173 25.6632 30.1795 25.6939C29.5038 25.7554 28.7436 25.8398 27.899 25.9474C27.0544 26.0549 26.1944 26.1701 25.3191 26.293C24.4437 26.4158 23.5991 26.531 22.7852 26.6386C21.9713 26.7461 21.2879 26.8306 20.7351 26.892C21.1651 26.339 21.6411 25.717 22.1633 25.0258C22.6854 24.3346 23.1922 23.6126 23.6836 22.86C24.175 22.1074 24.6203 21.3624 25.0196 20.6251C25.4189 19.8878 25.7414 19.212 25.9871 18.5976C26.4171 17.461 26.4324 16.2475 26.0332 14.9573C25.8489 14.5886 25.5648 14.2507 25.1809 13.9435C24.7969 13.6363 24.3132 13.4059 23.7296 13.2523C22.8389 13.1294 21.9559 13.1294 21.0806 13.2523C20.2053 13.3752 19.376 13.5672 18.5928 13.8283C17.8096 14.0894 17.1186 14.4043 16.5196 14.773C15.9207 15.1416 15.4831 15.4949 15.2066 15.8328C15.1452 15.9864 15.0838 16.1861 15.0224 16.4318C14.9609 16.6776 14.9456 16.8773 14.9763 17.0309C14.9763 17.0923 15.0224 17.1845 15.1145 17.3074C15.2066 17.4302 15.3372 17.5454 15.5061 17.653C15.675 17.7605 15.8823 17.8296 16.1281 17.8603C16.3738 17.891 16.6809 17.8142 17.0495 17.6299C17.3259 17.507 17.6484 17.3611 18.0169 17.1922C18.3855 17.0232 18.7924 16.8619 19.2378 16.7083C19.6831 16.5547 20.1362 16.4165 20.5969 16.2936C21.0576 16.1707 21.5029 16.0939 21.9329 16.0632C22.24 16.0325 22.5088 16.0248 22.7391 16.0402C22.9695 16.0555 23.1614 16.1246 23.315 16.2475C23.4071 16.309 23.4686 16.4549 23.4993 16.6853C23.53 16.9157 23.4993 17.1538 23.4071 17.3995C22.7007 19.1198 21.7256 20.8478 20.4817 22.5835C19.2378 24.3192 17.9709 25.909 16.6809 27.3528C16.343 27.6907 16.1588 27.9365 16.1281 28.0901C16.0973 28.2437 16.082 28.3512 16.082 28.4126C16.1434 28.8427 16.32 29.2574 16.6118 29.6568C16.9036 30.0562 17.2644 30.2251 17.6944 30.1637L17.5675 30.1752Z" fill="#161408"></path></svg>